# Blender v2.82 (sub 7) OBJ File: 'decorations.blend'
# www.blender.org
o roomba_Cube.004
v 0.000000 -0.050000 -0.200000
v 0.000000 0.050000 -0.200000
v 0.124350 -0.050000 -0.171153
v 0.124350 0.050000 -0.171153
v 0.190211 -0.050000 -0.061803
v 0.190211 0.050000 -0.061803
v 0.190211 -0.050000 0.061803
v 0.190211 0.050000 0.061803
v 0.124350 -0.050000 0.171153
v 0.124350 0.050000 0.171153
v -0.000000 -0.050000 0.200000
v -0.000000 0.050000 0.200000
v -0.124350 -0.050000 0.171153
v -0.124350 0.050000 0.171153
v -0.190211 -0.050000 0.061803
v -0.190211 0.050000 0.061803
v -0.190211 -0.050000 -0.061803
v -0.190211 0.050000 -0.061803
v -0.124350 -0.050000 -0.171153
v -0.124350 0.050000 -0.171153
vt 0.500000 0.892624
vt 0.250364 0.789833
vt 0.500000 0.789833
vt 0.247360 0.703425
vt 0.247360 0.703425
vt 0.247360 0.703425
vt 0.247360 0.703425
vt 0.247360 0.703425
vt 0.247360 0.703425
vt 0.247360 0.703425
vt 0.247360 0.703425
vt 0.247360 0.703425
vt 0.247360 0.703425
vt 0.247360 0.703425
vt 0.247360 0.703425
vt 0.247360 0.703425
vt 0.247360 0.703425
vt 0.247360 0.703425
vt 0.884102 0.624802
vt 0.500000 0.903869
vt 0.115898 0.624802
vt 0.247360 0.703425
vt 0.247360 0.703425
vt 0.749636 0.892624
vt 0.749636 0.789833
vt 0.457346 0.874039
vt 0.457346 0.874039
vt 0.457346 0.874039
vt 0.250364 0.892624
vt 0.751104 0.845616
vt 0.248896 0.845616
vt 0.115898 0.375198
vt 0.500000 0.096131
vt 0.248895 0.154384
vt 0.751104 0.154384
vt 0.884102 0.375198
vt 0.247360 0.703425
vt 0.457346 0.874039
vt 0.457346 0.874039
vt 0.457346 0.874039
vt 0.457346 0.874039
vt 0.457346 0.874039
vt 0.457346 0.874039
vt 0.457346 0.874039
vn 0.2260 0.0000 -0.9741
vn 0.8566 0.0000 -0.5159
vn 1.0000 0.0000 0.0000
vn 0.8566 0.0000 0.5159
vn 0.2260 0.0000 0.9741
vn -0.2260 0.0000 0.9741
vn -0.8566 0.0000 0.5159
vn -1.0000 0.0000 0.0000
vn 0.0000 1.0000 -0.0000
vn -0.8566 0.0000 -0.5159
vn -0.2260 0.0000 -0.9741
vn 0.0000 -1.0000 0.0000
s off
f 2/1/1 3/2/1 1/3/1
f 4/4/2 5/5/2 3/6/2
f 6/7/3 7/8/3 5/5/3
f 8/9/4 9/10/4 7/8/4
f 10/11/5 11/12/5 9/10/5
f 12/13/6 13/14/6 11/12/6
f 14/15/7 15/16/7 13/14/7
f 16/17/8 17/18/8 15/16/8
f 6/19/9 2/20/9 18/21/9
f 18/22/10 19/23/10 17/18/10
f 20/24/11 1/3/11 19/25/11
f 7/26/12 11/27/12 15/28/12
f 2/1/1 4/29/1 3/2/1
f 4/4/2 6/7/2 5/5/2
f 6/7/3 8/9/3 7/8/3
f 8/9/4 10/11/4 9/10/4
f 10/11/5 12/13/5 11/12/5
f 12/13/6 14/15/6 13/14/6
f 14/15/7 16/17/7 15/16/7
f 16/17/8 18/22/8 17/18/8
f 6/19/9 4/30/9 2/20/9
f 2/20/9 20/31/9 18/21/9
f 18/21/9 16/32/9 12/33/9
f 16/32/9 14/34/9 12/33/9
f 12/33/9 10/35/9 8/36/9
f 18/21/9 12/33/9 6/19/9
f 8/36/9 6/19/9 12/33/9
f 18/22/10 20/37/10 19/23/10
f 20/24/11 2/1/11 1/3/11
f 19/38/12 1/39/12 17/40/12
f 1/39/12 3/41/12 5/42/12
f 7/26/12 1/39/12 5/42/12
f 7/26/12 9/43/12 11/27/12
f 11/27/12 13/44/12 15/28/12
f 15/28/12 17/40/12 1/39/12
f 1/39/12 7/26/12 15/28/12
