# Blender v2.82 (sub 7) OBJ File: ''
# www.blender.org
o Cube_Cube.001
v 0.504150 0.017262 1.000000
v 0.504150 0.219005 1.000000
v 0.368408 0.174709 0.808600
v 0.312060 0.174709 0.849539
v 0.333583 0.174709 0.915780
v 0.403233 0.174709 0.915780
v 0.424756 0.174709 0.849539
v 0.368408 1.825230 0.813744
v 0.315484 1.834221 0.851129
v 0.335699 1.848770 0.911619
v 0.401117 1.848770 0.911619
v 0.421332 1.834221 0.851129
v 0.259109 2.246762 0.606017
v 0.224717 2.275469 0.648041
v 0.257683 2.321919 0.671033
v 0.312449 2.321919 0.643219
v 0.313330 2.275469 0.603037
v -0.050370 2.400393 0.031660
v -0.026332 2.462071 0.033793
v 0.032719 2.462071 0.003802
v 0.045177 2.400393 -0.016866
v 0.343779 -0.056515 0.652919
v 0.443779 -0.056515 0.652919
v 0.343779 -0.143117 0.702919
v 0.443779 -0.143117 0.702919
v 0.343779 -0.143117 0.802919
v 0.443779 -0.143117 0.802919
v 0.343779 -0.056515 0.852919
v 0.443779 -0.056515 0.852919
v 0.343779 0.030088 0.802919
v 0.443779 0.030088 0.802919
v 0.343779 0.030088 0.702919
v 0.443779 0.030088 0.702919
v 0.355396 1.086234 0.813743
v 0.364387 1.139158 0.851129
v 0.378935 1.118942 0.911619
v 0.378935 1.053525 0.911619
v 0.364387 1.033310 0.851129
v -0.504150 0.017262 1.000000
v -0.504150 0.219005 1.000000
v 0.000000 0.017262 1.000000
v 0.000000 0.219005 1.000000
v -0.368408 0.174709 0.808600
v -0.312060 0.174709 0.849539
v -0.333583 0.174709 0.915780
v -0.403233 0.174709 0.915780
v -0.424756 0.174709 0.849539
v -0.368408 1.825230 0.813744
v -0.315484 1.834221 0.851129
v -0.335699 1.848770 0.911619
v -0.401117 1.848770 0.911619
v -0.421332 1.834221 0.851129
v -0.259109 2.246762 0.606017
v -0.224717 2.275469 0.648041
v -0.257683 2.321919 0.671033
v -0.312449 2.321919 0.643219
v -0.313330 2.275469 0.603037
v 0.050370 2.400393 0.031660
v 0.026332 2.462071 0.033793
v -0.032719 2.462071 0.003802
v -0.045177 2.400393 -0.016866
v -0.343779 -0.056515 0.652919
v -0.443779 -0.056515 0.652919
v -0.343779 -0.143117 0.702919
v -0.443779 -0.143117 0.702919
v -0.343779 -0.143117 0.802919
v -0.443779 -0.143117 0.802919
v -0.343779 -0.056515 0.852919
v -0.443779 -0.056515 0.852919
v -0.343779 0.030088 0.802919
v -0.443779 0.030088 0.802919
v -0.343779 0.030088 0.702919
v -0.443779 0.030088 0.702919
v -0.355396 1.086234 0.813743
v -0.364387 1.139158 0.851129
v -0.378935 1.118942 0.911619
v -0.378935 1.053525 0.911619
v -0.364387 1.033310 0.851129
v 0.000000 1.081676 0.813743
v 0.000000 1.134600 0.851129
v 0.000000 1.114385 0.911619
v 0.000000 1.048968 0.911619
v 0.000000 1.028753 0.851129
v 0.504150 0.219005 0.000000
v 0.504150 0.017262 0.000000
v 0.504150 0.017262 -1.000000
v 0.504150 0.219005 -1.000000
v 0.368408 0.174709 -0.808600
v 0.312060 0.174709 -0.849539
v 0.333583 0.174709 -0.915780
v 0.403233 0.174709 -0.915780
v 0.424756 0.174709 -0.849539
v 0.368408 1.825230 -0.813744
v 0.315484 1.834221 -0.851129
v 0.335699 1.848770 -0.911619
v 0.401117 1.848770 -0.911619
v 0.421332 1.834221 -0.851129
v 0.259109 2.246762 -0.606017
v 0.224717 2.275469 -0.648041
v 0.257683 2.321919 -0.671033
v 0.312449 2.321919 -0.643219
v 0.313330 2.275469 -0.603037
v -0.006175 2.362275 0.000000
v -0.050370 2.400393 -0.031660
v -0.026332 2.462071 -0.033793
v 0.032719 2.462071 -0.003802
v 0.045177 2.400393 0.016866
v 0.343779 -0.056515 -0.652919
v 0.443779 -0.056515 -0.652919
v 0.343779 -0.143117 -0.702919
v 0.443779 -0.143117 -0.702919
v 0.343779 -0.143117 -0.802919
v 0.443779 -0.143117 -0.802919
v 0.343779 -0.056515 -0.852919
v 0.443779 -0.056515 -0.852919
v 0.343779 0.030088 -0.802919
v 0.443779 0.030088 -0.802919
v 0.343779 0.030088 -0.702919
v 0.443779 0.030088 -0.702919
v 0.355396 1.086234 -0.813743
v 0.364387 1.139158 -0.851129
v 0.378935 1.118942 -0.911619
v 0.378935 1.053525 -0.911619
v 0.364387 1.033310 -0.851129
v 0.000000 0.017262 0.000000
v 0.000000 0.219005 0.000000
v -0.504150 0.219005 0.000000
v -0.504150 0.017262 0.000000
v -0.504150 0.017262 -1.000000
v -0.504150 0.219005 -1.000000
v 0.000000 0.017262 -1.000000
v 0.000000 0.219005 -1.000000
v -0.368408 0.174709 -0.808600
v -0.312060 0.174709 -0.849539
v -0.333583 0.174709 -0.915780
v -0.403233 0.174709 -0.915780
v -0.424756 0.174709 -0.849539
v -0.368408 1.825230 -0.813744
v -0.315484 1.834221 -0.851129
v -0.335699 1.848770 -0.911619
v -0.401117 1.848770 -0.911619
v -0.421332 1.834221 -0.851129
v -0.259109 2.246762 -0.606017
v -0.224717 2.275469 -0.648041
v -0.257683 2.321919 -0.671033
v -0.312449 2.321919 -0.643219
v -0.313330 2.275469 -0.603037
v 0.006175 2.362275 0.000000
v 0.050370 2.400393 -0.031660
v 0.026332 2.462071 -0.033793
v -0.032719 2.462071 -0.003802
v -0.045177 2.400393 0.016866
v -0.343779 -0.056515 -0.652919
v -0.443779 -0.056515 -0.652919
v -0.343779 -0.143117 -0.702919
v -0.443779 -0.143117 -0.702919
v -0.343779 -0.143117 -0.802919
v -0.443779 -0.143117 -0.802919
v -0.343779 -0.056515 -0.852919
v -0.443779 -0.056515 -0.852919
v -0.343779 0.030088 -0.802919
v -0.443779 0.030088 -0.802919
v -0.343779 0.030088 -0.702919
v -0.443779 0.030088 -0.702919
v -0.355396 1.086234 -0.813743
v -0.364387 1.139158 -0.851129
v -0.378935 1.118942 -0.911619
v -0.378935 1.053525 -0.911619
v -0.364387 1.033310 -0.851129
v 0.000000 1.081676 -0.813743
v 0.000000 1.134600 -0.851129
v 0.000000 1.114385 -0.911619
v 0.000000 1.048968 -0.911619
v 0.000000 1.028753 -0.851129
v -0.000000 2.365405 0.000000
v 0.098283 2.440486 0.071406
v -0.037540 2.440486 0.115538
v -0.121485 2.440486 0.000000
v -0.037540 2.440486 -0.115538
v 0.098283 2.440486 -0.071406
v 0.037540 2.561972 0.115538
v -0.098283 2.561972 0.071406
v -0.098283 2.561972 -0.071406
v 0.037540 2.561972 -0.115538
v 0.121485 2.561972 0.000000
v -0.000000 2.637054 0.000000
vt 0.625000 0.625000
vt 0.375000 0.750000
vt 0.375000 0.625000
vt 0.250000 0.750000
vt 0.250000 0.625000
vt 0.750000 0.625000
vt 0.625000 0.750000
vt 0.375000 0.875000
vt 0.000000 0.000000
vt 0.000000 0.000000
vt 0.000000 0.000000
vt 0.000000 0.000000
vt 0.000000 0.000000
vt 0.000000 0.000000
vt 0.000000 0.000000
vt 0.000000 0.000000
vt 0.000000 0.000000
vt 0.000000 0.000000
vt 0.000000 0.000000
vt 0.000000 0.000000
vt 0.000000 0.000000
vt 0.000000 0.000000
vt 0.000000 0.000000
vt 0.000000 0.000000
vt 0.000000 0.000000
vt 0.000000 0.000000
vt 0.000000 0.000000
vt 1.000000 1.000000
vt 0.833333 0.500000
vt 1.000000 0.500000
vt 0.833333 1.000000
vt 0.666667 0.500000
vt 0.666667 1.000000
vt 0.500000 0.500000
vt 0.500000 1.000000
vt 0.333333 0.500000
vt 0.042154 0.130000
vt 0.250000 0.010000
vt 0.457846 0.130000
vt 0.333333 1.000000
vt 0.166667 0.500000
vt 0.166667 1.000000
vt -0.000000 0.500000
vt 0.542154 0.130000
vt 0.542154 0.370000
vt 0.957846 0.370000
vt 0.000000 0.000000
vt 0.000000 0.000000
vt 0.000000 0.000000
vt 0.000000 0.000000
vt 0.000000 0.000000
vt 0.000000 0.000000
vt 0.000000 0.000000
vt 0.000000 0.000000
vt 0.000000 0.000000
vt 0.000000 0.000000
vt 0.375000 0.750000
vt 0.625000 0.625000
vt 0.375000 0.625000
vt 0.625000 0.750000
vt 0.000000 0.000000
vt 0.000000 0.000000
vt 0.000000 0.000000
vt 0.000000 0.000000
vt 0.000000 0.000000
vt 0.000000 0.000000
vt 0.000000 0.000000
vt 0.000000 0.000000
vt 0.000000 0.000000
vt 0.000000 0.000000
vt 0.000000 0.000000
vt 0.000000 0.000000
vt 0.000000 0.000000
vt 0.000000 0.000000
vt 0.000000 0.000000
vt 0.000000 0.000000
vt 0.000000 0.000000
vt 0.000000 0.000000
vt 0.000000 0.000000
vt 0.000000 0.000000
vt 0.833333 0.500000
vt 1.000000 1.000000
vt 1.000000 0.500000
vt 0.666667 0.500000
vt 0.833333 1.000000
vt 0.500000 0.500000
vt 0.666667 1.000000
vt 0.333333 0.500000
vt 0.500000 1.000000
vt 0.042154 0.130000
vt 0.042154 0.370000
vt 0.250000 0.490000
vt 0.166667 0.500000
vt 0.333333 1.000000
vt -0.000000 0.500000
vt 0.166667 1.000000
vt 0.957846 0.130000
vt 0.957846 0.370000
vt 0.542154 0.370000
vt 0.000000 0.000000
vt 0.000000 0.000000
vt 0.000000 0.000000
vt 0.000000 0.000000
vt 0.000000 0.000000
vt 0.375000 0.750000
vt 0.250000 0.750000
vt 0.625000 0.750000
vt 0.375000 0.875000
vt 0.000000 0.000000
vt 0.000000 0.000000
vt 0.000000 0.000000
vt 0.000000 0.000000
vt 0.000000 0.000000
vt 0.000000 0.000000
vt 0.000000 0.000000
vt 0.000000 0.000000
vt 0.000000 0.000000
vt 0.000000 0.000000
vt 0.000000 0.000000
vt 0.000000 0.000000
vt 0.000000 0.000000
vt 0.000000 0.000000
vt 0.000000 0.000000
vt 0.000000 0.000000
vt 0.000000 0.000000
vt 0.000000 0.000000
vt 0.000000 0.000000
vt 0.000000 0.000000
vt 0.833333 0.500000
vt 1.000000 1.000000
vt 1.000000 0.500000
vt 0.666667 0.500000
vt 0.833333 1.000000
vt 0.500000 0.500000
vt 0.666667 1.000000
vt 0.333333 0.500000
vt 0.500000 1.000000
vt 0.042154 0.130000
vt 0.042154 0.370000
vt 0.250000 0.490000
vt 0.166667 0.500000
vt 0.333333 1.000000
vt -0.000000 0.500000
vt 0.166667 1.000000
vt 0.957846 0.130000
vt 0.957846 0.370000
vt 0.542154 0.370000
vt 0.000000 0.000000
vt 0.000000 0.000000
vt 0.000000 0.000000
vt 0.000000 0.000000
vt 0.000000 0.000000
vt 0.000000 0.000000
vt 0.000000 0.000000
vt 0.000000 0.000000
vt 0.000000 0.000000
vt 0.375000 0.750000
vt 0.625000 0.750000
vt 0.000000 0.000000
vt 0.000000 0.000000
vt 0.000000 0.000000
vt 0.000000 0.000000
vt 0.000000 0.000000
vt 0.000000 0.000000
vt 0.000000 0.000000
vt 0.000000 0.000000
vt 0.000000 0.000000
vt 0.000000 0.000000
vt 0.000000 0.000000
vt 0.000000 0.000000
vt 0.000000 0.000000
vt 0.000000 0.000000
vt 0.000000 0.000000
vt 0.000000 0.000000
vt 0.000000 0.000000
vt 0.000000 0.000000
vt 0.000000 0.000000
vt 1.000000 1.000000
vt 0.833333 0.500000
vt 1.000000 0.500000
vt 0.833333 1.000000
vt 0.666667 0.500000
vt 0.666667 1.000000
vt 0.500000 0.500000
vt 0.500000 1.000000
vt 0.333333 0.500000
vt 0.042154 0.130000
vt 0.250000 0.010000
vt 0.457846 0.130000
vt 0.333333 1.000000
vt 0.166667 0.500000
vt 0.166667 1.000000
vt -0.000000 0.500000
vt 0.542154 0.130000
vt 0.542154 0.370000
vt 0.957846 0.370000
vt 0.000000 0.000000
vt 0.000000 0.000000
vt 0.000000 0.000000
vt 0.000000 0.000000
vt 0.000000 0.000000
vt 0.000000 0.000000
vt 0.818181 0.000000
vt 0.727272 0.157461
vt 0.909090 0.157461
vt 0.636363 0.000000
vt 0.545454 0.157461
vt 0.090909 0.000000
vt 0.000000 0.157461
vt 0.181818 0.157461
vt 0.272727 0.000000
vt 0.363636 0.157461
vt 0.454545 0.000000
vt 0.636363 0.314921
vt 0.818181 0.314921
vt 0.090909 0.314921
vt 0.272727 0.314921
vt 0.454545 0.314921
vt 1.000000 0.314921
vt 0.727272 0.472382
vt 0.909090 0.472382
vt 0.181818 0.472382
vt 0.363636 0.472382
vt 0.545454 0.472382
vt 0.750000 0.750000
vt 0.625000 0.875000
vt 0.457846 0.370000
vt 0.250000 0.490000
vt 0.042154 0.370000
vt -0.000000 1.000000
vt 0.750000 0.490000
vt 0.957846 0.130000
vt 0.750000 0.010000
vt 0.457846 0.370000
vt 0.457846 0.130000
vt 0.250000 0.010000
vt -0.000000 1.000000
vt 0.750000 0.490000
vt 0.542154 0.130000
vt 0.750000 0.010000
vt 0.750000 0.750000
vt 0.625000 0.875000
vt 0.457846 0.370000
vt 0.457846 0.130000
vt 0.250000 0.010000
vt -0.000000 1.000000
vt 0.750000 0.490000
vt 0.542154 0.130000
vt 0.750000 0.010000
vt 0.457846 0.370000
vt 0.250000 0.490000
vt 0.042154 0.370000
vt -0.000000 1.000000
vt 0.750000 0.490000
vt 0.957846 0.130000
vt 0.750000 0.010000
vn 1.0000 0.0000 0.0000
vn 0.0000 -1.0000 0.0000
vn 0.0000 1.0000 0.0000
vn 0.0000 0.0000 1.0000
vn 0.5878 0.0025 -0.8090
vn 0.0000 0.0025 1.0000
vn -0.5878 0.0025 -0.8090
vn 0.9511 0.0017 0.3090
vn -0.9511 0.0017 0.3090
vn 0.9113 0.3473 0.2210
vn -0.9443 -0.0441 0.3262
vn 0.5849 -0.2840 -0.7597
vn 0.0000 0.4934 0.8698
vn -0.5594 -0.4786 -0.6768
vn 0.4229 -0.8353 -0.3513
vn 0.0893 0.9804 0.1758
vn -0.5714 -0.8158 0.0897
vn 0.8965 0.2995 -0.3265
vn -0.8195 0.3615 0.4447
vn 0.0000 -0.5000 -0.8660
vn 0.0000 -0.5000 0.8660
vn 0.0000 0.5000 0.8660
vn 0.0000 0.5000 -0.8660
vn -1.0000 0.0000 0.0000
vn 0.0074 -0.5769 -0.8167
vn -0.0072 0.5778 -0.8162
vn 0.0119 -0.9484 0.3169
vn -0.0114 0.9476 0.3194
vn 0.5767 0.0020 -0.8169
vn 0.9486 0.0020 0.3165
vn -0.9113 0.3473 0.2210
vn 0.7378 0.2053 0.6430
vn -0.1632 -0.4017 -0.9011
vn 0.8270 -0.3664 -0.4265
vn -0.4764 -0.8016 -0.3613
vn -0.0893 0.9804 0.1758
vn 0.5714 -0.8158 0.0897
vn -0.8979 0.2918 -0.3296
vn 0.8195 0.3615 0.4447
vn -0.0072 -0.5761 -0.8173
vn 0.0072 0.5778 -0.8162
vn -0.0114 -0.9492 0.3145
vn 0.0114 0.9476 0.3194
vn 0.0000 0.0000 -1.0000
vn 0.5878 0.0025 0.8090
vn 0.0000 0.0025 -1.0000
vn -0.5767 0.0020 0.8169
vn 0.9511 0.0017 -0.3090
vn -0.9486 0.0020 -0.3165
vn 0.9113 0.3473 -0.2210
vn -0.7378 0.2053 -0.6430
vn 0.1632 -0.4017 0.9011
vn 0.0000 0.4934 -0.8698
vn -0.8270 -0.3664 0.4265
vn 0.4764 -0.8016 0.3613
vn 0.0893 0.9804 -0.1758
vn -0.5714 -0.8158 -0.0897
vn 0.8979 0.2918 0.3296
vn -0.8195 0.3615 -0.4447
vn 0.0072 -0.5761 0.8173
vn -0.0072 0.5778 0.8162
vn 0.0114 -0.9492 -0.3145
vn -0.0114 0.9476 -0.3194
vn -0.5878 0.0025 0.8090
vn -0.9511 0.0017 -0.3090
vn -0.9113 0.3473 -0.2210
vn 0.9443 -0.0441 -0.3262
vn -0.5849 -0.2840 0.7597
vn 0.5594 -0.4786 0.6768
vn -0.4229 -0.8353 0.3513
vn -0.0893 0.9804 -0.1758
vn 0.5714 -0.8158 -0.0897
vn -0.8965 0.2995 0.3265
vn 0.8195 0.3615 -0.4447
vn -0.0074 -0.5769 0.8167
vn 0.0072 0.5778 0.8162
vn -0.0119 -0.9484 -0.3169
vn 0.0114 0.9476 -0.3194
vn 0.1876 -0.7947 0.5774
vn 0.6071 -0.7947 0.0000
vn -0.4911 -0.7947 0.3568
vn -0.4911 -0.7947 -0.3568
vn 0.1876 -0.7947 -0.5774
vn 0.9822 -0.1876 0.0000
vn 0.3035 -0.1876 0.9342
vn -0.7946 -0.1876 0.5774
vn -0.7946 -0.1876 -0.5774
vn 0.3035 -0.1876 -0.9342
vn 0.7946 0.1876 0.5774
vn -0.3035 0.1876 0.9342
vn -0.9822 0.1876 0.0000
vn -0.3035 0.1876 -0.9342
vn 0.7946 0.1876 -0.5774
vn 0.4911 0.7947 0.3568
vn -0.1876 0.7947 0.5774
vn -0.6071 0.7947 0.0000
vn -0.1876 0.7946 -0.5774
vn 0.4911 0.7947 -0.3568
vn -0.5767 0.0020 -0.8169
vn -0.9486 0.0020 0.3165
vn 0.9861 0.1190 -0.1159
vn -0.7378 0.2053 0.6430
vn 0.1632 -0.4017 -0.9011
vn 0.4004 0.4669 0.7884
vn -0.8270 -0.3664 -0.4265
vn 0.4764 -0.8016 -0.3613
vn -0.6015 -0.7909 0.1126
vn 0.8979 0.2918 -0.3296
vn -0.8421 0.3130 0.4393
vn 0.0072 -0.5761 -0.8173
vn -0.0074 0.5770 -0.8167
vn 0.0114 -0.9492 0.3145
vn -0.0119 0.9484 0.3169
vn -0.9861 0.1190 -0.1159
vn 0.9443 -0.0441 0.3262
vn -0.5849 -0.2840 -0.7597
vn -0.4004 0.4669 0.7884
vn 0.5594 -0.4786 -0.6768
vn -0.4229 -0.8353 -0.3513
vn 0.6015 -0.7909 0.1126
vn -0.8965 0.2995 -0.3265
vn 0.8421 0.3130 0.4393
vn -0.0074 -0.5769 -0.8167
vn 0.0074 0.5770 -0.8167
vn -0.0119 -0.9484 0.3169
vn 0.0119 0.9484 0.3169
vn 0.5767 0.0020 0.8169
vn 0.9486 0.0020 -0.3165
vn 0.9861 0.1190 0.1159
vn -0.9443 -0.0441 -0.3262
vn 0.5849 -0.2840 0.7597
vn 0.4004 0.4669 -0.7884
vn -0.5594 -0.4786 0.6768
vn 0.4229 -0.8353 0.3513
vn -0.6015 -0.7909 -0.1126
vn 0.8965 0.2995 0.3265
vn -0.8421 0.3130 -0.4393
vn 0.0074 -0.5769 0.8167
vn -0.0074 0.5770 0.8167
vn 0.0119 -0.9484 -0.3169
vn -0.0119 0.9484 -0.3169
vn -0.9861 0.1190 0.1159
vn 0.7378 0.2053 -0.6430
vn -0.1632 -0.4017 0.9011
vn -0.4004 0.4669 -0.7884
vn 0.8270 -0.3664 0.4265
vn -0.4764 -0.8016 0.3613
vn 0.6015 -0.7909 -0.1126
vn -0.8979 0.2918 0.3296
vn 0.8421 0.3130 -0.4393
vn -0.0072 -0.5761 0.8173
vn 0.0074 0.5770 0.8167
vn -0.0114 -0.9492 -0.3145
vn 0.0119 0.9484 -0.3169
s off
f 84/1/1 1/2/1 85/3/1
f 85/3/2 41/4/2 125/5/2
f 126/6/3 2/7/3 84/1/3
f 2/7/4 41/8/4 1/2/4
f 8/9/5 7/10/5 3/11/5
f 11/12/6 5/13/6 6/14/6
f 4/15/7 8/9/7 3/11/7
f 12/16/8 6/14/8 7/10/8
f 5/13/9 9/17/9 4/15/9
f 17/18/10 11/12/10 12/16/10
f 10/19/11 14/20/11 9/17/11
f 8/9/12 17/18/12 12/16/12
f 16/21/13 10/19/13 11/12/13
f 9/17/14 13/22/14 8/9/14
f 13/22/15 21/23/15 17/18/15
f 16/21/16 19/24/16 15/25/16
f 18/26/17 13/22/17 14/20/17
f 17/18/18 20/27/18 16/21/18
f 19/24/19 14/20/19 15/25/19
f 23/28/20 24/29/20 22/30/20
f 25/31/2 26/32/2 24/29/2
f 27/33/21 28/34/21 26/32/21
f 29/35/22 30/36/22 28/34/22
f 31/37/1 29/38/1 27/39/1
f 31/40/3 32/41/3 30/36/3
f 33/42/23 22/43/23 32/41/23
f 30/44/24 32/45/24 24/46/24
f 34/47/25 83/48/25 79/49/25
f 37/50/4 81/51/4 82/52/4
f 34/47/26 80/53/26 35/54/26
f 38/55/27 82/52/27 83/48/27
f 35/54/28 81/51/28 36/56/28
f 39/57/24 127/58/24 128/59/24
f 41/4/2 128/59/2 125/5/2
f 40/60/3 126/6/3 127/58/3
f 41/8/4 40/60/4 39/57/4
f 47/61/7 48/62/7 43/63/7
f 45/64/6 51/65/6 46/66/6
f 44/67/29 48/62/29 49/68/29
f 46/66/9 52/69/9 47/61/9
f 45/64/30 49/68/30 50/70/30
f 51/65/31 57/71/31 52/69/31
f 50/70/32 54/72/32 55/73/32
f 48/62/33 57/71/33 53/74/33
f 50/70/13 56/75/13 51/65/13
f 49/68/34 53/74/34 54/72/34
f 53/74/35 61/76/35 148/77/35
f 56/75/36 59/78/36 60/79/36
f 53/74/37 58/80/37 54/72/37
f 57/71/38 60/79/38 61/76/38
f 54/72/39 59/78/39 55/73/39
f 64/81/20 63/82/20 62/83/20
f 66/84/2 65/85/2 64/81/2
f 68/86/21 67/87/21 66/84/21
f 70/88/22 69/89/22 68/86/22
f 71/90/24 73/91/24 63/92/24
f 72/93/3 71/94/3 70/88/3
f 62/95/23 73/96/23 72/93/23
f 66/97/1 64/98/1 72/99/1
f 74/100/40 83/48/40 78/101/40
f 77/102/4 81/51/4 76/103/4
f 80/53/41 74/100/41 75/104/41
f 78/101/42 82/52/42 77/102/42
f 81/51/43 75/104/43 76/103/43
f 86/105/1 84/1/1 85/3/1
f 131/106/2 85/3/2 125/5/2
f 87/107/3 126/6/3 84/1/3
f 131/108/44 87/107/44 86/105/44
f 92/109/45 93/110/45 88/111/45
f 90/112/46 96/113/46 91/114/46
f 89/115/47 93/110/47 94/116/47
f 91/114/48 97/117/48 92/109/48
f 90/112/49 94/116/49 95/118/49
f 96/113/50 102/119/50 97/117/50
f 95/118/51 99/120/51 100/121/51
f 93/110/52 102/119/52 98/122/52
f 95/118/53 101/123/53 96/113/53
f 94/116/54 98/122/54 99/120/54
f 98/122/55 107/124/55 103/125/55
f 101/123/56 105/126/56 106/127/56
f 98/122/57 104/128/57 99/120/57
f 102/119/58 106/127/58 107/124/58
f 99/120/59 105/126/59 100/121/59
f 110/129/21 109/130/21 108/131/21
f 112/132/2 111/133/2 110/129/2
f 114/134/20 113/135/20 112/132/20
f 116/136/23 115/137/23 114/134/23
f 117/138/1 119/139/1 109/140/1
f 118/141/3 117/142/3 116/136/3
f 108/143/22 119/144/22 118/141/22
f 112/145/24 110/146/24 118/147/24
f 120/148/60 174/149/60 124/150/60
f 123/151/44 172/152/44 122/153/44
f 171/154/61 120/148/61 121/155/61
f 124/150/62 173/156/62 123/151/62
f 172/152/63 121/155/63 122/153/63
f 127/58/24 129/157/24 128/59/24
f 128/59/2 131/106/2 125/5/2
f 126/6/3 130/158/3 127/58/3
f 130/158/44 131/108/44 129/157/44
f 138/159/64 137/160/64 133/161/64
f 141/162/46 135/163/46 136/164/46
f 134/165/45 138/159/45 133/161/45
f 142/166/65 136/164/65 137/160/65
f 135/163/48 139/167/48 134/165/48
f 147/168/66 141/162/66 142/166/66
f 140/169/67 144/170/67 139/167/67
f 138/159/68 147/168/68 142/166/68
f 146/171/53 140/169/53 141/162/53
f 139/167/69 143/172/69 138/159/69
f 143/172/70 152/173/70 147/168/70
f 146/171/71 150/174/71 145/175/71
f 149/176/72 143/172/72 144/170/72
f 147/168/73 151/177/73 146/171/73
f 150/174/74 144/170/74 145/175/74
f 154/178/21 155/179/21 153/180/21
f 156/181/2 157/182/2 155/179/2
f 158/183/20 159/184/20 157/182/20
f 160/185/23 161/186/23 159/184/23
f 162/187/24 160/188/24 158/189/24
f 162/190/3 163/191/3 161/186/3
f 164/192/22 153/193/22 163/191/22
f 161/194/1 163/195/1 155/196/1
f 165/197/75 174/149/75 170/198/75
f 168/199/44 172/152/44 173/156/44
f 165/197/76 171/154/76 166/200/76
f 169/201/77 173/156/77 174/149/77
f 166/200/78 172/152/78 167/202/78
f 175/203/79 176/204/79 177/205/79
f 176/204/80 175/206/80 180/207/80
f 175/208/81 177/209/81 178/210/81
f 175/211/82 178/210/82 179/212/82
f 175/213/83 179/212/83 180/207/83
f 176/204/84 180/207/84 185/214/84
f 177/205/85 176/204/85 181/215/85
f 178/210/86 177/209/86 182/216/86
f 179/212/87 178/210/87 183/217/87
f 180/207/88 179/212/88 184/218/88
f 176/204/89 185/214/89 181/215/89
f 177/205/90 181/215/90 182/219/90
f 178/210/91 182/216/91 183/217/91
f 179/212/92 183/217/92 184/218/92
f 180/207/93 184/218/93 185/214/93
f 181/215/94 185/214/94 186/220/94
f 182/219/95 181/215/95 186/221/95
f 183/217/96 182/216/96 186/222/96
f 184/218/97 183/217/97 186/223/97
f 185/214/98 184/218/98 186/224/98
f 84/1/1 2/7/1 1/2/1
f 85/3/2 1/2/2 41/4/2
f 126/6/3 42/225/3 2/7/3
f 2/7/4 42/226/4 41/8/4
f 8/9/29 12/16/29 7/10/29
f 11/12/6 10/19/6 5/13/6
f 4/15/99 9/17/99 8/9/99
f 12/16/30 11/12/30 6/14/30
f 5/13/100 10/19/100 9/17/100
f 17/18/101 16/21/101 11/12/101
f 10/19/102 15/25/102 14/20/102
f 8/9/103 13/22/103 17/18/103
f 16/21/104 15/25/104 10/19/104
f 9/17/105 14/20/105 13/22/105
f 13/22/106 103/125/106 21/23/106
f 16/21/16 20/27/16 19/24/16
f 18/26/107 103/125/107 13/22/107
f 17/18/108 21/23/108 20/27/108
f 19/24/109 18/26/109 14/20/109
f 23/28/20 25/31/20 24/29/20
f 25/31/2 27/33/2 26/32/2
f 27/33/21 29/35/21 28/34/21
f 29/35/22 31/40/22 30/36/22
f 27/39/1 25/227/1 31/37/1
f 25/227/1 23/228/1 31/37/1
f 23/228/1 33/229/1 31/37/1
f 31/40/3 33/42/3 32/41/3
f 33/42/23 23/230/23 22/43/23
f 32/45/24 22/231/24 24/46/24
f 24/46/24 26/232/24 28/233/24
f 28/233/24 30/44/24 24/46/24
f 34/47/110 38/55/110 83/48/110
f 37/50/4 36/56/4 81/51/4
f 34/47/111 79/49/111 80/53/111
f 38/55/112 37/50/112 82/52/112
f 35/54/113 80/53/113 81/51/113
f 39/57/24 40/60/24 127/58/24
f 41/4/2 39/57/2 128/59/2
f 40/60/3 42/225/3 126/6/3
f 41/8/4 42/226/4 40/60/4
f 47/61/99 52/69/99 48/62/99
f 45/64/6 50/70/6 51/65/6
f 44/67/5 43/63/5 48/62/5
f 46/66/100 51/65/100 52/69/100
f 45/64/8 44/67/8 49/68/8
f 51/65/114 56/75/114 57/71/114
f 50/70/115 49/68/115 54/72/115
f 48/62/116 52/69/116 57/71/116
f 50/70/117 55/73/117 56/75/117
f 49/68/118 48/62/118 53/74/118
f 53/74/119 57/71/119 61/76/119
f 56/75/36 55/73/36 59/78/36
f 53/74/120 148/77/120 58/80/120
f 57/71/121 56/75/121 60/79/121
f 54/72/122 58/80/122 59/78/122
f 64/81/20 65/85/20 63/82/20
f 66/84/2 67/87/2 65/85/2
f 68/86/21 69/89/21 67/87/21
f 70/88/22 71/94/22 69/89/22
f 63/92/24 65/234/24 71/90/24
f 65/234/24 67/235/24 71/90/24
f 67/235/24 69/236/24 71/90/24
f 72/93/3 73/96/3 71/94/3
f 62/95/23 63/237/23 73/96/23
f 64/98/1 62/238/1 72/99/1
f 72/99/1 70/239/1 68/240/1
f 68/240/1 66/97/1 72/99/1
f 74/100/123 79/49/123 83/48/123
f 77/102/4 82/52/4 81/51/4
f 80/53/124 79/49/124 74/100/124
f 78/101/125 83/48/125 82/52/125
f 81/51/126 80/53/126 75/104/126
f 86/105/1 87/107/1 84/1/1
f 131/106/2 86/105/2 85/3/2
f 87/107/3 132/241/3 126/6/3
f 131/108/44 132/242/44 87/107/44
f 92/109/127 97/117/127 93/110/127
f 90/112/46 95/118/46 96/113/46
f 89/115/64 88/111/64 93/110/64
f 91/114/128 96/113/128 97/117/128
f 90/112/65 89/115/65 94/116/65
f 96/113/129 101/123/129 102/119/129
f 95/118/130 94/116/130 99/120/130
f 93/110/131 97/117/131 102/119/131
f 95/118/132 100/121/132 101/123/132
f 94/116/133 93/110/133 98/122/133
f 98/122/134 102/119/134 107/124/134
f 101/123/56 100/121/56 105/126/56
f 98/122/135 103/125/135 104/128/135
f 102/119/136 101/123/136 106/127/136
f 99/120/137 104/128/137 105/126/137
f 110/129/21 111/133/21 109/130/21
f 112/132/2 113/135/2 111/133/2
f 114/134/20 115/137/20 113/135/20
f 116/136/23 117/142/23 115/137/23
f 109/140/1 111/243/1 117/138/1
f 111/243/1 113/244/1 117/138/1
f 113/244/1 115/245/1 117/138/1
f 118/141/3 119/144/3 117/142/3
f 108/143/22 109/246/22 119/144/22
f 110/146/24 108/247/24 118/147/24
f 118/147/24 116/248/24 114/249/24
f 114/249/24 112/145/24 118/147/24
f 120/148/138 170/198/138 174/149/138
f 123/151/44 173/156/44 172/152/44
f 171/154/139 170/198/139 120/148/139
f 124/150/140 174/149/140 173/156/140
f 172/152/141 171/154/141 121/155/141
f 127/58/24 130/158/24 129/157/24
f 128/59/2 129/157/2 131/106/2
f 126/6/3 132/241/3 130/158/3
f 130/158/44 132/242/44 131/108/44
f 138/159/47 142/166/47 137/160/47
f 141/162/46 140/169/46 135/163/46
f 134/165/127 139/167/127 138/159/127
f 142/166/49 141/162/49 136/164/49
f 135/163/128 140/169/128 139/167/128
f 147/168/142 146/171/142 141/162/142
f 140/169/143 145/175/143 144/170/143
f 138/159/144 143/172/144 147/168/144
f 146/171/145 145/175/145 140/169/145
f 139/167/146 144/170/146 143/172/146
f 143/172/147 148/77/147 152/173/147
f 146/171/71 151/177/71 150/174/71
f 149/176/148 148/77/148 143/172/148
f 147/168/149 152/173/149 151/177/149
f 150/174/150 149/176/150 144/170/150
f 154/178/21 156/181/21 155/179/21
f 156/181/2 158/183/2 157/182/2
f 158/183/20 160/185/20 159/184/20
f 160/185/23 162/190/23 161/186/23
f 158/189/24 156/250/24 162/187/24
f 156/250/24 154/251/24 162/187/24
f 154/251/24 164/252/24 162/187/24
f 162/190/3 164/192/3 163/191/3
f 164/192/22 154/253/22 153/193/22
f 163/195/1 153/254/1 155/196/1
f 155/196/1 157/255/1 159/256/1
f 159/256/1 161/194/1 155/196/1
f 165/197/151 169/201/151 174/149/151
f 168/199/44 167/202/44 172/152/44
f 165/197/152 170/198/152 171/154/152
f 169/201/153 168/199/153 173/156/153
f 166/200/154 171/154/154 172/152/154
